<svg xmlns="http://www.w3.org/2000/svg" width="64" height="64" viewBox="0 0 64 64">
  <defs><linearGradient id="g" x1="0" y1="0" x2="1" y2="1"><stop offset="0" stop-color="#FF7A45"/><stop offset="1" stop-color="#F04E1A"/></linearGradient></defs>
  <rect width="64" height="64" rx="15" fill="url(#g)"/>
  <g transform="translate(8,4) scale(0.4)">
    <path d="M60 118 C60 118 30 86 30 61 A30 30 0 1 1 90 61 C90 86 60 118 60 118 Z" fill="#fff"/>
    <circle cx="60" cy="59" r="12.5" fill="#F04E1A"/>
    <path d="M60 6 C64 6 88 26 94 34 L26 34 C32 26 56 6 60 6 Z" fill="#FFDDBB"/>
    <path d="M18 34 Q60 46 102 34 Q98 40 60 42 Q22 40 18 34 Z" fill="#F3A469"/>
  </g>
</svg>
